<?xml version="1.0" encoding="utf-8"?>
<!-- Generator: Adobe Illustrator 19.1.0, SVG Export Plug-In . SVG Version: 6.00 Build 0)  -->
<svg version="1.1" xmlns="http://www.w3.org/2000/svg" xmlns:xlink="http://www.w3.org/1999/xlink" x="0px" y="0px"
	 viewBox="0 0 1352 697" style="enable-background:new 0 0 1352 697;" xml:space="preserve">
<style type="text/css">
	.st0{opacity:0.1098;}
	.st1{fill-rule:evenodd;clip-rule:evenodd;fill:#04E9B6;}
	.st2{opacity:7.058824e-02;}
	.st3{fill-rule:evenodd;clip-rule:evenodd;fill:#848DCD;}
	.st4{fill-rule:evenodd;clip-rule:evenodd;fill:#FFBD7F;}
	.st5{font-family:'ArialMT';}
	.st6{font-size:13.5265px;}
	.st7{font-family:'Arial-BoldMT';}
	.st8{font-size:11.929px;}
	.st9{font-size:10px;}
	.st10{font-size:26px;}
	.st11{font-size:11px;}
	.st12{fill:#FFFFFF;}
	.st13{opacity:0.1608;}
	.st14{font-size:37.2658px;}
	.st15{font-size:17.0899px;}
	.st16{opacity:0.5804;}
	.st17{opacity:0.5686;}
	.st18{display:none;}
	.st19{display:inline;fill:#FFFFFF;}
	.st20{display:inline;}
	.st21{fill-rule:evenodd;clip-rule:evenodd;fill:#A1EDFF;}
	.st22{enable-background:new    ;}
	
		.st23{fill-rule:evenodd;clip-rule:evenodd;fill:none;stroke:#BCBCBC;stroke-width:3.68;stroke-miterlimit:100;stroke-dasharray:14.72,7.36;}
	.st24{fill:#BCBCBC;}
	.st25{fill:#D6D6D6;}
	.st26{font-family:'MyriadPro-Regular';}
	.st27{font-size:28px;}
	.st28{fill:#B7B7B7;}
</style>
<g id="Изображение_xA0_514_1_">
	<g id="Прямоугольник_1" class="st0">
		<g>
			<rect x="202" class="st1" width="120" height="620"/>
		</g>
	</g>
	<g id="Прямоугольник_1_копия" class="st2">
		<g>
			<rect x="322" class="st3" width="271" height="620"/>
		</g>
	</g>
	<g id="Прямоугольник_1_копия_3" class="st2">
		<g>
			<rect x="593" class="st4" width="675" height="620"/>
		</g>
	</g>
	<g id="Left_Lines_1_">
		<g id="Слой_1_xA0_Изображение_1_">
			
				<image style="overflow:visible;" width="32" height="183" id="Слой_1_xA0_Изображение" xlink:href="76B813EF4761FF07.png"  transform="matrix(1 0 0 1 0 87)">
			</image>
		</g>
		<g id="Слой_1_копия_xA0_Изображение_1_">
			
				<image style="overflow:visible;" width="32" height="145" id="Слой_1_копия_xA0_Изображение" xlink:href="76B813EF4761FF05.png"  transform="matrix(1 0 0 1 0 272)">
			</image>
		</g>
		<g id="Слой_1_копия_2_xA0_Изображение_1_">
			
				<image style="overflow:visible;" width="32" height="145" id="Слой_1_копия_2_xA0_Изображение" xlink:href="76B813EF4761FF0B.png"  transform="matrix(1 0 0 1 0 419)">
			</image>
		</g>
		<g id="Слой_1_копия_4_xA0_Изображение_1_">
			
				<image style="overflow:visible;" width="32" height="76" id="Слой_1_копия_4_xA0_Изображение" xlink:href="76B813EF4761FF0D.png"  transform="matrix(1 0 0 1 0 566)">
			</image>
		</g>
		<g id="Proficient_user">
			<text transform="matrix(0 -1.0041 1 0 19.6079 242)" class="st5 st6">Proficient user</text>
		</g>
		<g id="Independent_user">
			<text transform="matrix(0 -1.0041 1 0 19.6079 398)" class="st5 st6">Independent user</text>
		</g>
		<g id="Basic_user">
			<text transform="matrix(0 -1.0041 1 0 19.6079 524)" class="st5 st6">Basic user</text>
		</g>
		<g id="Common_Europian_Framework_of_Reference__x28_CEFR_x29__1_">
			<text id="Common_Europian_Framework_of_Reference__x28_CEFR_x29_" transform="matrix(0.9935 0 0 1 8.0005 29.2339)"><tspan x="0" y="0" class="st7 st8">Common Europian</tspan><tspan x="14.2" y="12.6" class="st7 st8">Framework of</tspan><tspan x="2.6" y="25.3" class="st7 st8">Reference (CEFR)</tspan></text>
		</g>
		<g id="Cambridge_x0D_English_x0D_Scale">
			<text transform="matrix(0.9935 0 0 1 128.8511 29.0933)"><tspan x="0" y="0" class="st7 st8">Cambridge</tspan><tspan x="9.6" y="12.6" class="st7 st8">English</tspan><tspan x="13.9" y="25.3" class="st7 st8">Scale </tspan></text>
		</g>
		<g id="Below">
			<text transform="matrix(1 0 0 1 39.2944 594.0557)" class="st7 st9">Below</text>
		</g>
		<g id="Letters_1_">
			<g id="C2">
				<text transform="matrix(1 0 0 1 37.4004 170.0557)" class="st7 st10">C2</text>
			</g>
			<g id="C1">
				<text transform="matrix(1 0 0 1 37.4004 242.0557)" class="st7 st10">C1</text>
			</g>
			<g id="B2">
				<text transform="matrix(1 0 0 1 37.4004 317.0557)" class="st7 st10">B2</text>
			</g>
			<g id="B1">
				<text transform="matrix(1 0 0 1 37.4004 389.0557)" class="st7 st10">B1</text>
			</g>
			<g id="A2">
				<text transform="matrix(1 0 0 1 37.4004 461.0557)" class="st7 st10">A2</text>
			</g>
			<g id="A1_1_">
				<text transform="matrix(1 0 0 1 37.4004 536.0557)" class="st7 st10">A1</text>
			</g>
			<g id="A1">
				<text transform="matrix(1 0 0 1 37.4004 615.0557)" class="st7 st10">A1</text>
			</g>
		</g>
		<g id="Lineyka_1_">
			<g id="Numbers_3_">
				<g id="_x32_30_1_">
					<text transform="matrix(1 0 0 1 127.7712 91.9121)" class="st7 st11">230</text>
				</g>
				<g id="_x32_20_1_">
					<text transform="matrix(1 0 0 1 127.7712 128.9121)" class="st7 st11">220</text>
				</g>
				<g id="_x32_10_1_">
					<text transform="matrix(1 0 0 1 127.7712 165.9121)" class="st7 st11">210</text>
				</g>
				<g id="_x32_00_1_">
					<text transform="matrix(1 0 0 1 127.7712 201.9121)" class="st7 st11">200</text>
				</g>
				<g id="_x31_90_1_">
					<text transform="matrix(1 0 0 1 127.7712 238.9121)" class="st7 st11">190</text>
				</g>
				<g id="_x31_80_1_">
					<text transform="matrix(1 0 0 1 127.7712 275.9121)" class="st7 st11">180</text>
				</g>
				<g id="_x31_70_1_">
					<text transform="matrix(1 0 0 1 127.7712 311.9121)" class="st7 st11">170</text>
				</g>
				<g id="_x31_50_1_">
					<text transform="matrix(1 0 0 1 127.7712 385.9121)" class="st7 st11">150</text>
				</g>
				<g id="_x31_60_1_">
					<text transform="matrix(1 0 0 1 127.7712 349.9121)" class="st7 st11">160</text>
				</g>
				<g id="_x31_40_1_">
					<text transform="matrix(1 0 0 1 127.7712 421.9121)" class="st7 st11">140</text>
				</g>
				<g id="_x31_30_1_">
					<text transform="matrix(1 0 0 1 127.7712 458.9121)" class="st7 st11">130</text>
				</g>
				<g id="_x31_20_1_">
					<text transform="matrix(1 0 0 1 127.7712 495.9121)" class="st7 st11">120</text>
				</g>
				<g id="_x31_10_1_">
					<text transform="matrix(1 0 0 1 127.7712 531.9121)" class="st7 st11">110</text>
				</g>
				<g id="_x31_00_1_">
					<text transform="matrix(1 0 0 1 127.7712 567.9121)" class="st7 st11">100</text>
				</g>
				<g id="_x39_0_1_">
					<text transform="matrix(1 0 0 1 130.8301 605.9121)" class="st7 st11">90</text>
				</g>
				<g id="_x38_0_1_">
					<text transform="matrix(1 0 0 1 132.8301 641.9121)" class="st7 st11">80</text>
				</g>
			</g>
			<g id="Skhali_3_">
				<g id="Shkala_3_">
				</g>
				<g id="Shkala_копия_3_">
				</g>
				<g id="Shkala_копия_2_3_">
				</g>
				<g id="Shkala_копия_3_3_">
				</g>
				<g id="Shkala_копия_4_3_">
				</g>
				<g id="Shkala_копия_5_3_">
				</g>
				<g id="Shkala_копия_6_3_">
				</g>
				<g id="Shkala_копия_7_3_">
				</g>
				<g id="Shkala_копия_8_3_">
				</g>
				<g id="Shkala_копия_9_3_">
				</g>
				<g id="Shkala_копия_10_3_">
				</g>
				<g id="Shkala_копия_11_3_">
				</g>
				<g id="Shkala_копия_12_3_">
				</g>
				<g id="Shkala_копия_13_3_">
				</g>
				<g id="Shkala_копия_14_3_">
				</g>
			</g>
			<g id="Слой_1_копия_3_xA0_Изображение_3_">
				
					<image style="overflow:visible;" width="84" height="563" id="Слой_1_копия_3_xA0_Изображение_2_" xlink:href="76B813EF4761FF0F.png"  transform="matrix(1 0 0 1 118 80)">
				</image>
			</g>
		</g>
		<g id="Lineyka_копия_1_">
			<g id="Numbers_2_">
				<g id="_x32_30">
					<text transform="matrix(1 0 0 1 1321.7708 91.9121)" class="st7 st11">230</text>
				</g>
				<g id="_x32_20">
					<text transform="matrix(1 0 0 1 1321.7708 128.9121)" class="st7 st11">220</text>
				</g>
				<g id="_x32_10">
					<text transform="matrix(1 0 0 1 1321.7708 165.9121)" class="st7 st11">210</text>
				</g>
				<g id="_x32_00">
					<text transform="matrix(1 0 0 1 1321.7708 201.9121)" class="st7 st11">200</text>
				</g>
				<g id="_x31_90">
					<text transform="matrix(1 0 0 1 1321.7708 238.9121)" class="st7 st11">190</text>
				</g>
				<g id="_x31_80">
					<text transform="matrix(1 0 0 1 1321.7708 275.9121)" class="st7 st11">180</text>
				</g>
				<g id="_x31_70">
					<text transform="matrix(1 0 0 1 1321.7708 311.9121)" class="st7 st11">170</text>
				</g>
				<g id="_x31_50">
					<text transform="matrix(1 0 0 1 1321.7708 385.9121)" class="st7 st11">150</text>
				</g>
				<g id="_x31_60">
					<text transform="matrix(1 0 0 1 1321.7708 349.9121)" class="st7 st11">160</text>
				</g>
				<g id="_x31_40">
					<text transform="matrix(1 0 0 1 1321.7708 421.9121)" class="st7 st11">140</text>
				</g>
				<g id="_x31_30">
					<text transform="matrix(1 0 0 1 1321.7708 458.9121)" class="st7 st11">130</text>
				</g>
				<g id="_x31_20">
					<text transform="matrix(1 0 0 1 1321.7708 495.9121)" class="st7 st11">120</text>
				</g>
				<g id="_x31_10">
					<text transform="matrix(1 0 0 1 1321.7708 531.9121)" class="st7 st11">110</text>
				</g>
				<g id="_x31_00">
					<text transform="matrix(1 0 0 1 1321.7708 567.9121)" class="st7 st11">100</text>
				</g>
				<g id="_x39_0">
					<text transform="matrix(1 0 0 1 1324.8296 605.9121)" class="st7 st11">90</text>
				</g>
				<g id="_x38_0">
					<text transform="matrix(1 0 0 1 1326.8296 641.9121)" class="st7 st11">80</text>
				</g>
			</g>
			<g id="Группа_1_1_">
				<g id="Skhali_2_">
					<g id="Shkala_2_">
					</g>
					<g id="Shkala_копия_2_">
					</g>
					<g id="Shkala_копия_2_2_">
					</g>
					<g id="Shkala_копия_3_2_">
					</g>
					<g id="Shkala_копия_4_2_">
					</g>
					<g id="Shkala_копия_5_2_">
					</g>
					<g id="Shkala_копия_6_2_">
					</g>
					<g id="Shkala_копия_7_2_">
					</g>
					<g id="Shkala_копия_8_2_">
					</g>
					<g id="Shkala_копия_9_2_">
					</g>
					<g id="Shkala_копия_10_2_">
					</g>
					<g id="Shkala_копия_11_2_">
					</g>
					<g id="Shkala_копия_12_2_">
					</g>
					<g id="Shkala_копия_13_2_">
					</g>
					<g id="Shkala_копия_14_2_">
					</g>
				</g>
				<g id="Слой_1_копия_3_xA0_Изображение_1_">
					
						<image style="overflow:visible;" width="84" height="563" id="Слой_1_копия_3_xA0_Изображение" xlink:href="76B813EF4761FF0C.png"  transform="matrix(1 0 0 1 1268 80)">
					</image>
				</g>
			</g>
		</g>
	</g>
	<g id="Vantage_1_">
		<g id="Слой_5_xA0_Изображение_1_">
			
				<image style="overflow:visible;" width="134" height="110" id="Слой_5_xA0_Изображение" xlink:href="76B813EF4761FF04.png"  transform="matrix(1 0 0 1 322 234)">
			</image>
		</g>
		<g id="Grade_A_2_">
			<text transform="matrix(1 0 0 1 367.1345 256.7646)" class="st12 st7 st11">Grade A</text>
		</g>
		<g id="Grade_B_2_">
			<text transform="matrix(1 0 0 1 367.1345 287.7646)" class="st12 st7 st11">Grade B</text>
		</g>
		<g id="Grade_C_2_">
			<text transform="matrix(1 0 0 1 367.1345 322.7646)" class="st12 st7 st11">Grade C</text>
		</g>
		<g id="Cambridge_English:_Business_Vantage_1_">
			<text id="Cambridge_English:_Business_Vantage" transform="matrix(1 0 0 1 358.2644 28.4595)"><tspan x="0" y="0" class="st7 st11">Cambridge</tspan><tspan x="7" y="12" class="st7 st11">English:</tspan><tspan x="4.3" y="24" class="st7 st11">Business</tspan><tspan x="7.3" y="36" class="st7 st11">Vantage</tspan></text>
		</g>
	</g>
	<g id="Higher_1_">
		<g id="Слой_6_xA0_Изображение_1_">
			
				<image style="overflow:visible;" width="130" height="110" id="Слой_6_xA0_Изображение" xlink:href="76B813EF4761FF06.png"  transform="matrix(1 0 0 1 460 161)">
			</image>
		</g>
		<g id="Cambridge_English:_Business_Higher_1_">
			<text id="Cambridge_English:_Business_Higher" transform="matrix(1 0 0 1 496.2644 28.4595)"><tspan x="0" y="0" class="st7 st11">Cambridge</tspan><tspan x="7" y="12" class="st7 st11">English:</tspan><tspan x="4.3" y="24" class="st7 st11">Business</tspan><tspan x="11.3" y="36" class="st7 st11">Higher</tspan></text>
		</g>
		<g id="Grade_B_1_">
			<text transform="matrix(1 0 0 1 504.1345 214.7646)" class="st12 st7 st11">Grade B</text>
		</g>
		<g id="Grade_A_1_">
			<text transform="matrix(1 0 0 1 504.1345 183.7646)" class="st12 st7 st11">Grade A</text>
		</g>
		<g id="Grade_C_1_">
			<text transform="matrix(1 0 0 1 503.1345 248.7646)" class="st12 st7 st11">Grade C</text>
		</g>
	</g>
	<g id="Advanced_1_">
		<g id="Слой_7_xA0_Изображение_1_">
			
				<image style="overflow:visible;" width="134" height="110" id="Слой_7_xA0_Изображение" xlink:href="76B813EF4761FF02.png"  transform="matrix(1 0 0 1 595 161)">
			</image>
		</g>
		<g id="Grade_C">
			<text transform="matrix(1 0 0 1 640.1345 248.7646)" class="st12 st7 st11">Grade C</text>
		</g>
		<g id="Grade_B">
			<text transform="matrix(1 0 0 1 640.1345 214.7646)" class="st12 st7 st11">Grade B</text>
		</g>
		<g id="Grade_A">
			<text transform="matrix(1 0 0 1 640.1345 183.7646)" class="st12 st7 st11">Grade A</text>
		</g>
		<g id="Cambridge_x0D_English:_x0D_Advanced">
			<text transform="matrix(1 0 0 1 631.2434 28.4595)"><tspan x="0" y="0" class="st7 st11">Cambridge</tspan><tspan x="7" y="12" class="st7 st11">English:</tspan><tspan x="2.4" y="24" class="st7 st11">Advanced</tspan></text>
		</g>
	</g>
	<g id="_x31_-styear_1_">
		<g id="Internal_Cambridge_General_Test_1_">
			<text id="Internal_Cambridge_General_Test" transform="matrix(1 0 0 1 245.1057 28.4595)"><tspan x="0" y="0" class="st7 st11">Internal</tspan><tspan x="-8.9" y="12" class="st7 st11">Cambridge</tspan><tspan x="-13.5" y="24" class="st7 st11">General Test</tspan></text>
		</g>
		<g id="General" class="st13">
			<text transform="matrix(0 -0.9583 1 0 263.9707 567)" class="st7 st14">General</text>
		</g>
		<g id="English" class="st13">
			<text transform="matrix(0 -0.9583 1 0 263.9707 256.9854)" class="st7 st14">English</text>
		</g>
		<g id="Слой_9_xA0_Изображение_1_">
			
				<image style="overflow:visible;" width="123" height="84" id="Слой_9_xA0_Изображение" xlink:href="289AE1955129DC04.png"  transform="matrix(1 0 0 1 195 297)">
			</image>
		</g>
		<g id="Entrance_x0D_Language_x0D_Level">
			<text transform="matrix(1 0 0 1 234.084 321.8003)"><tspan x="0" y="0" class="st12 st7 st11">Entrance</tspan><tspan x="-2.4" y="18" class="st12 st7 st11">Language</tspan><tspan x="9.5" y="36" class="st12 st7 st11">Level</tspan></text>
		</g>
	</g>
	<g id="_x31_-st_Year_x0D_of_Education">
		<text transform="matrix(0.9899 0 0 1 225.5933 655.4922)"><tspan x="0" y="0" class="st7 st15">1-st Year</tspan><tspan x="-15.6" y="20.5" class="st7 st15">of Education</tspan></text>
	</g>
	<g id="_x32_-nd_Year_x0D_of_Education">
		<text transform="matrix(0.9899 0 0 1 416.1543 655.4922)"><tspan x="0" y="0" class="st7 st15">2-nd Year</tspan><tspan x="-12.8" y="20.5" class="st7 st15">of Education</tspan></text>
	</g>
	<g id="_x33_-rd_and_4-th_Year_of_Education_1_">
		<text id="_x33_-rd_and_4-th_Year_of_Education" transform="matrix(0.9899 0 0 1 887.2539 654.5928)"><tspan x="0" y="0" class="st7 st15">3-rd and 4-th Year</tspan><tspan x="20.9" y="20.5" class="st7 st15">of Education</tspan></text>
	</g>
	<g id="Ielts_1_">
		<g id="EILTS_xA0_Изображение_3_">
			
				<image style="overflow:visible;" width="93" height="131" id="EILTS_xA0_Изображение_2_" xlink:href="289AE1955129DC03.png"  transform="matrix(1 0 0 1 1016 198)">
			</image>
		</g>
		<g id="EILTS_копия_xA0_Изображение_1_" class="st16">
			
				<image style="overflow:visible;" width="93" height="266" id="EILTS_копия_xA0_Изображение" xlink:href="289AE1955129DC1C.png"  transform="matrix(1 0 0 1 1016 144)">
			</image>
		</g>
		<g id="_x38_.5_1_">
			<text transform="matrix(1 0 0 1 1054.0105 175.9014)" class="st12 st7 st11">8.5</text>
		</g>
		<g id="_x39_.0_1_">
			<text transform="matrix(1 0 0 1 1054.0105 159.9014)" class="st12 st7 st11">9.0</text>
		</g>
		<g id="_x38_.0_1_">
			<text transform="matrix(1 0 0 1 1054.0105 192.9014)" class="st12 st7 st11">8.0</text>
		</g>
		<g id="_x37_.5">
			<text transform="matrix(1 0 0 1 1054.0105 218.9014)" class="st12 st7 st11">7.5</text>
		</g>
		<g id="_x37_.0">
			<text transform="matrix(1 0 0 1 1054.0105 246.9014)" class="st12 st7 st11">7.0</text>
		</g>
		<g id="_x36_.5">
			<text transform="matrix(1 0 0 1 1054.0105 265.9014)" class="st12 st7 st11">6.5</text>
		</g>
		<g id="_x36_.0">
			<text transform="matrix(1 0 0 1 1054.0105 292.9014)" class="st12 st7 st11">6.0</text>
		</g>
		<g id="_x35_.5">
			<text transform="matrix(1 0 0 1 1054.0105 316.9014)" class="st12 st7 st11">5.5</text>
		</g>
		<g id="_x35_.0_1_">
			<text transform="matrix(1 0 0 1 1054.0105 355.9014)" class="st12 st7 st11">5.0</text>
		</g>
		<g id="_x34_.5_1_">
			<text transform="matrix(1 0 0 1 1054.0105 380.9014)" class="st12 st7 st11">4.5</text>
		</g>
		<g id="_x34_.0_1_">
			<text transform="matrix(1 0 0 1 1054.0105 399.9014)" class="st12 st7 st11">4.0</text>
		</g>
		<g id="IELTS">
			<text transform="matrix(1 0 0 1 1047.3748 33.3013)" class="st7 st11">IELTS</text>
		</g>
	</g>
	<g id="TOEFL_1_">
		<g id="EILTS_xA0_Изображение_1_">
			
				<image style="overflow:visible;" width="103" height="132" id="EILTS_xA0_Изображение" xlink:href="289AE1955129DC1F.png"  transform="matrix(1 0 0 1 908 197)">
			</image>
		</g>
		<g id="EILTS_копия_2_xA0_Изображение_1_" class="st17">
			
				<image style="overflow:visible;" width="103" height="266" id="EILTS_копия_2_xA0_Изображение" xlink:href="289AE1955129DC1D.png"  transform="matrix(1 0 0 1 908 144)">
			</image>
		</g>
		<g id="_x38_.5" class="st18">
			<text transform="matrix(1 0 0 1 951.0105 175.9014)" class="st19 st7 st11">8.5</text>
		</g>
		<g id="_x39_.0" class="st18">
			<text transform="matrix(1 0 0 1 951.0105 159.9014)" class="st19 st7 st11">9.0</text>
		</g>
		<g id="_x38_.0" class="st18">
			<text transform="matrix(1 0 0 1 951.0105 192.9014)" class="st19 st7 st11">8.0</text>
		</g>
		<g id="_x31_02-109">
			<text transform="matrix(1 0 0 1 938.4717 218.9014)" class="st12 st7 st11">102-109</text>
		</g>
		<g id="_x31_10-114">
			<text transform="matrix(1 0 0 1 938.4717 192.9014)" class="st12 st7 st11">110-114</text>
		</g>
		<g id="_x31_15-117">
			<text transform="matrix(1 0 0 1 938.4717 175.9014)" class="st12 st7 st11">115-117</text>
		</g>
		<g id="_x31_18-120">
			<text transform="matrix(1 0 0 1 938.4717 159.9014)" class="st12 st7 st11">118-120</text>
		</g>
		<g id="_x39_4-101">
			<text transform="matrix(1 0 0 1 941.5305 246.9014)" class="st12 st7 st11">94-101</text>
		</g>
		<g id="_x37_9-93">
			<text transform="matrix(1 0 0 1 944.5894 266.9014)" class="st12 st7 st11">79-93</text>
		</g>
		<g id="_x36_0-78">
			<text transform="matrix(1 0 0 1 944.5894 290.9014)" class="st12 st7 st11">60-78</text>
		</g>
		<g id="_x34_6-59">
			<text transform="matrix(1 0 0 1 944.5894 318.9014)" class="st12 st7 st11">46-59</text>
		</g>
		<g id="_x33_5-45">
			<text transform="matrix(1 0 0 1 944.5894 355.9014)" class="st12 st7 st11">35-45</text>
		</g>
		<g id="_x33_2-34">
			<text transform="matrix(1 0 0 1 944.5894 380.9014)" class="st12 st7 st11">32-34</text>
		</g>
		<g id="_x30_-3">
			<text transform="matrix(1 0 0 1 950.707 399.9014)" class="st12 st7 st11">0-3</text>
		</g>
		<g id="_x35_.0" class="st18">
			<text transform="matrix(1 0 0 1 951.0105 355.9014)" class="st19 st7 st11">5.0</text>
		</g>
		<g id="_x34_.5" class="st18">
			<text transform="matrix(1 0 0 1 951.0105 380.9014)" class="st19 st7 st11">4.5</text>
		</g>
		<g id="_x34_.0" class="st18">
			<text transform="matrix(1 0 0 1 951.0105 399.9014)" class="st19 st7 st11">4.0</text>
		</g>
		<g id="TOEFL_2_">
			<text transform="matrix(1 0 0 1 941.9336 33.3013)" class="st7 st11">TOEFL</text>
		</g>
	</g>
	<g id="GMAT_1_">
		<g id="GMAT_2_">
			<text transform="matrix(1 0 0 1 802.7678 33.3013)" class="st7 st11">GMAT</text>
		</g>
		<g id="Слой_8_xA0_Изображение_3_">
			
				<image style="overflow:visible;" width="169" height="183" id="Слой_8_xA0_Изображение_2_" xlink:href="289AE1955129DC02.png"  transform="matrix(1 0 0 1 734 125)">
			</image>
		</g>
		<g id="B2__x0D_AND_HIGHER_1_">
			<text transform="matrix(1 0 0 1 813.1531 219.7212)"><tspan x="0" y="0" class="st12 st7 st11">B2 </tspan><tspan x="-27.8" y="18" class="st12 st7 st11">AND HIGHER </tspan></text>
		</g>
	</g>
	<g id="Translation_1_" class="st18">
		<g id="Translation_2_" class="st20">
			<text transform="matrix(1 0 0 1 1161.3159 33.3013)" class="st7 st11">Translation</text>
		</g>
		<g id="Слой_8_xA0_Изображение_1_" class="st20">
			
				<image style="overflow:visible;" width="154" height="183" id="Слой_8_xA0_Изображение" xlink:href="289AE1955129DC05.png"  transform="matrix(1 0 0 1 1114 125)">
			</image>
		</g>
		<g id="B2__x0D_AND_HIGHER" class="st20">
			<text transform="matrix(1 0 0 1 1185.1531 219.7212)"><tspan x="0" y="0" class="st12 st7 st11">B2 </tspan><tspan x="-27.8" y="18" class="st12 st7 st11">AND HIGHER </tspan></text>
		</g>
	</g>
</g>
<g id="Слой_188">
	<rect x="1115.3" y="124" class="st21" width="145.3" height="172.3"/>
</g>
<g id="Фигура_8_23_" class="st22">
</g>
<g id="Фигура_8_22_" class="st22">
</g>
<g id="Фигура_8_21_" class="st22">
</g>
<g id="Фигура_8_20_" class="st22">
</g>
<g id="Фигура_8_19_" class="st22">
</g>
<g id="Фигура_8_18_" class="st22">
</g>
<g id="Фигура_8_17_" class="st22">
</g>
<g id="Фигура_8_16_" class="st22">
</g>
<g id="Фигура_8_15_" class="st22">
</g>
<g id="Фигура_8_14_" class="st22">
</g>
<g id="Фигура_8_13_" class="st22">
</g>
<g id="Фигура_8_12_" class="st22">
</g>
<g id="Фигура_3_7_" class="st22">
</g>
<g id="Фигура_3_6_" class="st22">
</g>
<g id="Фигура_3_5_" class="st22">
	<polyline class="st23" points="363.8,622.2 363.8,620.8 363.8,691.2 	"/>
</g>
<g id="Фигура_3_4_" class="st22">
	<g id="Фигура_3_3_">
		<g>
			<path class="st24" d="M1157.2,618.7c-4.8,0-9.7,0-14.7,0l0,3.7l14.7,0V618.7L1157.2,618.7L1157.2,618.7z M1135.1,618.7
				c-4.8,0-9.7,0-14.7,0l0,3.7l14.7,0L1135.1,618.7L1135.1,618.7z M1113,618.7c-4.8,0-9.7,0-14.7,0l0,3.7l14.7,0L1113,618.7
				L1113,618.7z M1090.9,618.7c-4.8,0-9.7,0-14.7,0l0,3.7l14.7,0L1090.9,618.7L1090.9,618.7z M1068.9,618.8c-4.9,0-9.8,0-14.7,0
				l0,3.7l14.7,0L1068.9,618.8L1068.9,618.8z M1046.8,618.8c-4.9,0-9.8,0-14.7,0l0,3.7l14.7,0L1046.8,618.8L1046.8,618.8z
				 M1024.7,618.8c-4.9,0-9.8,0-14.7,0l0,3.7l14.7,0L1024.7,618.8L1024.7,618.8z M1002.6,618.8c-4.8,0-9.6,0-14.5,0
				c-0.1,0-0.2,0-0.3,0l0,3.7l14.7,0L1002.6,618.8L1002.6,618.8z M980.5,618.8c-4.9,0-9.8,0-14.7,0l0,3.7l14.7,0L980.5,618.8
				L980.5,618.8z M958.4,618.9c-0.7,0-1.4,0-2.1,0c-4.2,0-8.4,0-12.6,0l0,3.7l14.7,0L958.4,618.9L958.4,618.9z M936.4,618.9
				c-4.9,0-9.8,0-14.7,0l0,3.7l14.7,0L936.4,618.9L936.4,618.9z M914.3,618.9c-4.9,0-9.8,0-14.7,0l0,3.7l14.7,0L914.3,618.9
				L914.3,618.9z M892.2,618.9c-4.9,0-9.8,0-14.7,0l0,3.7l14.7,0L892.2,618.9L892.2,618.9z M870.1,619c-4.9,0-9.8,0-14.7,0l0,3.7
				l14.7,0L870.1,619L870.1,619z M848,619c-4.9,0-9.8,0-14.7,0l0,3.7l14.7,0L848,619L848,619z M826,619c-4.9,0-9.8,0-14.7,0l0,3.7
				l14.7,0L826,619L826,619z M803.9,619c-4.3,0-8.5,0-12.8,0c-0.6,0-1.3,0-1.9,0l0,3.7l14.7,0L803.9,619L803.9,619z M781.8,619.1
				c-4.9,0-9.8,0-14.7,0l0,3.7l14.7,0L781.8,619.1L781.8,619.1z M759.7,619.1c-4.9,0-9.8,0-14.7,0l0,3.7l14.7,0L759.7,619.1
				L759.7,619.1z M737.6,619.1c-4.9,0-9.8,0-14.7,0l0,3.7l14.7,0L737.6,619.1L737.6,619.1z M715.6,619.2c-4.4,0-8.8,0-13.2,0
				c-0.5,0-1,0-1.5,0l0,3.7l14.7,0L715.6,619.2L715.6,619.2z M693.5,619.2c-4.1,0-8.3,0-12.4,0c-0.1,0-0.2,0-0.3,0c0,0,0,0-0.1,0
				c-0.2,0-0.4,0-0.6,0c0,0,0,0-0.1,0c-0.3,0-0.7,0-1,0c-0.1,0-0.2,0-0.3,0l0,3.7l14.7,0L693.5,619.2L693.5,619.2z M671.4,619.2
				c-4.2,0-8.4,0-12.6,0c-0.7,0-1.4,0-2.1,0l0,3.7l14.7,0L671.4,619.2L671.4,619.2z M649.3,619.3c-4.9,0-9.8,0-14.7,0l0,3.7l14.7,0
				L649.3,619.3L649.3,619.3z M627.2,619.3c-4.9,0-9.8,0-14.7,0l0,3.7l14.7,0L627.2,619.3L627.2,619.3z M605.1,619.3
				c-4.9,0-9.8,0-14.7,0l0,3.7l14.7,0L605.1,619.3L605.1,619.3z M583.1,619.4c-4.9,0-9.8,0-14.7,0l0,3.7l14.7,0L583.1,619.4
				L583.1,619.4z M561,619.4c-4.9,0-9.8,0-14.7,0l0,3.7l14.7,0L561,619.4L561,619.4z M538.9,619.4c-3.3,0-6.6,0-9.9,0
				c-1.6,0-3.2,0-4.8,0l0,3.7l14.7,0L538.9,619.4L538.9,619.4z M516.8,619.5c-0.1,0-0.3,0-0.4,0c-4.8,0-9.6,0-14.3,0l0,3.7l14.7,0
				L516.8,619.5L516.8,619.5z M494.7,619.5c-2.4,0-4.7,0-7.1,0c-2.6,0-5.1,0-7.6,0l0,3.7l14.7,0L494.7,619.5L494.7,619.5z
				 M472.7,619.5c-4.9,0-9.9,0-14.7,0l0,3.7l14.7,0L472.7,619.5L472.7,619.5z M450.6,619.6c-0.5,0-1,0-1.5,0c-3.5,0-7.1,0-10.6,0
				c-0.9,0-1.8,0-2.6,0l0,3.7l14.7,0L450.6,619.6L450.6,619.6z M428.5,619.6c-5,0-9.9,0-14.7,0l0,3.7l14.7,0L428.5,619.6
				L428.5,619.6z M406.4,619.6c-1.5,0-3,0-4.5,0c-3.4,0-6.8,0-10.2,0l0,3.7l14.7,0L406.4,619.6L406.4,619.6z M384.3,619.7
				c-5,0-9.9,0-14.7,0l0,3.7l14.7,0L384.3,619.7L384.3,619.7z M362.3,619.7c-5,0-9.9,0-14.7,0l0,3.7l14.7,0L362.3,619.7L362.3,619.7
				z M340.2,619.8c-3.3,0-6.5,0-9.7,0c-1.7,0-3.4,0-5,0l0,3.7l14.7,0L340.2,619.8L340.2,619.8z M318.1,619.8c-0.9,0-1.8,0-2.6,0
				c-4.1,0-8.2,0-12.1,0l0,3.7l14.8,0L318.1,619.8L318.1,619.8z M296,619.8c-5.1,0-10,0-14.7,0l0,3.7l14.7,0L296,619.8L296,619.8z
				 M273.9,619.9c-1,0-2,0-3,0c-3.9,0-7.6,0-11.2,0c-0.2,0-0.4,0-0.5,0l0,3.7l14.7,0L273.9,619.9L273.9,619.9z M251.8,619.9
				c-4.5,0-8.8,0-12.8,0c-0.7,0-1.3,0-1.9,0l0,3.7l14.7,0L251.8,619.9L251.8,619.9z M229.8,619.9c-3.6,0-6.8,0-9.8,0c0,0,0,0,0,0
				c0,0,0,0-0.1,0c-1.8,0-3.4,0-4.9,0l0,3.7l14.7,0L229.8,619.9L229.8,619.9z M207.6,620C207.6,620,207.6,620,207.6,620
				C207.6,620,207.6,620,207.6,620c-0.1,0-0.1,0-0.1,0c-3.6,0-5.5,0-5.5,0v9h3.7v-5.3l2,0L207.6,620L207.6,620z M205.7,636.4H202
				v14.7h3.7V636.4L205.7,636.4z M205.7,658.4H202v14.7h3.7V658.4L205.7,658.4z M205.7,680.5H202c0,0,0,5.3,0,9.1l0,0v3.7l0,0l0,0
				l0,0l0,0l0,0l0,0l0,0l3.7,0V680.5L205.7,680.5z M226,689.6l-14.7,0l0,3.7c0,0,3.7,0,7.3,0l0.1,0c0,0,0,0,0,0l7.3,0L226,689.6
				L226,689.6z M248.1,689.5l-14.7,0l0,3.7l14.7,0L248.1,689.5L248.1,689.5z M270.2,689.5l-14.7,0l0,3.7l3.2,0c0,0,0,0,0,0l0,0
				c0,0,0,0,0.1,0h0c0,0,0,0,0,0l0.1,0c0,0,0,0,0,0l0,0c0,0,0,0,0,0h0c0,0,0,0,0.1,0h0c0,0,0.1,0,0.1,0h0c0.1,0,0.2,0,0.3,0h0
				c4.4,0,10.7,0,10.7,0L270.2,689.5L270.2,689.5z M292.3,689.5l-14.7,0l0,3.7l14.7,0L292.3,689.5L292.3,689.5z M314.3,689.4
				l-14.7,0l0,3.7c0,0,4.8,0,8.9,0l5.8,0L314.3,689.4L314.3,689.4z M336.4,689.4l-14.7,0l0,3.7l14.7,0L336.4,689.4L336.4,689.4z
				 M358.5,689.4l-14.7,0l0,3.7l14.7,0L358.5,689.4L358.5,689.4z M380.6,689.3l-14.7,0l0,3.7l14.7,0L380.6,689.3L380.6,689.3z
				 M402.7,689.3l-14.7,0l0,3.7l14.7,0L402.7,689.3L402.7,689.3z M424.7,689.2l-14.7,0l0,3.7c0,0,3.1,0,6.5,0l0,0c0,0,0,0,0,0l8.2,0
				L424.7,689.2L424.7,689.2z M446.8,689.2l-14.7,0l0,3.7l14.7,0L446.8,689.2L446.8,689.2z M468.9,689.2l-14.7,0l0,3.7l7.1,0
				c0,0,0,0,0,0l0.3,0c0,0,0,0,0,0l0.1,0c0,0,0,0,0,0l0,0c0,0,0,0,0,0l0.1,0c0,0,0,0,0,0h0c0,0,0,0,0.1,0l0,0c0.1,0,0.1,0,0.2,0l0,0
				c3.4,0,6.7,0,6.7,0L468.9,689.2L468.9,689.2z M491,689.1l-14.7,0l0,3.7l14.7,0L491,689.1L491,689.1z M513.1,689.1l-14.7,0l0,3.7
				c0,0,4.1,0,8,0l0,0c0,0,0,0,0,0l6.6,0L513.1,689.1L513.1,689.1z M535.1,689.1l-14.7,0l0,3.7l14.7,0L535.1,689.1L535.1,689.1z
				 M557.2,689l-14.7,0l0,3.7l0.4,0c0,0,0,0,0,0l0.1,0c0,0,0,0,0,0l0.1,0c2.9,0,14,0,14,0L557.2,689L557.2,689z M579.3,689l-14.7,0
				l0,3.7l14.7,0L579.3,689L579.3,689z M601.4,688.9l-14.7,0l0,3.7l14.7,0L601.4,688.9L601.4,688.9z M623.5,688.9l-14.7,0l0,3.7
				l14.7,0L623.5,688.9L623.5,688.9z M645.5,688.9l-14.7,0l0,3.7l14.7,0L645.5,688.9L645.5,688.9z M667.6,688.8l-14.7,0l0,3.7
				l11.1,0c0,0,0,0,0,0l0.2,0c0,0,0,0,0,0l0.1,0c0,0,0,0,0,0l0.3,0c0,0,0,0,0,0h0c0,0,0,0,0.1,0h0c0,0,0,0,0,0h0c0,0,0,0,0,0l0,0
				c0.1,0,0.2,0,0.2,0h0c0.1,0,0.2,0,0.3,0h0c1.4,0,2.3,0,2.3,0L667.6,688.8L667.6,688.8z M689.7,688.8l-14.7,0l0,3.7l14.7,0
				L689.7,688.8L689.7,688.8z M711.8,688.8l-14.7,0l0,3.7c0,0,3.5,0,7.1,0h0c0,0,0,0,0,0l0,0c0,0,0,0,0,0l7.5,0L711.8,688.8
				L711.8,688.8z M733.9,688.7l-14.7,0l0,3.7l14.7,0L733.9,688.7L733.9,688.7z M755.9,688.7l-14.7,0l0,3.7l4.2,0c0,0,0,0,0,0l0.1,0
				c0,0,0,0,0,0l0.1,0c0,0,0,0,0,0l0.1,0c0,0,0,0,0,0l0,0c0,0,0,0,0,0l0,0c0,0,0,0,0,0l0.1,0c0,0,0,0,0,0h0c0,0,0,0,0,0h0
				c0,0,0,0,0,0h0c4.3,0,9.9,0,9.9,0L755.9,688.7L755.9,688.7z M778,688.6l-14.7,0l0,3.7l14.7,0L778,688.6L778,688.6z M800.1,688.6
				l-14.7,0l0,3.7c0,0,4.6,0,8.6,0l6.1,0L800.1,688.6L800.1,688.6z M822.2,688.6l-14.7,0l0,3.7l14.7,0L822.2,688.6L822.2,688.6z
				 M844.3,688.5l-14.7,0l0,3.7l14.7,0L844.3,688.5L844.3,688.5z M866.3,688.5l-14.7,0l0,3.7l14.7,0L866.3,688.5L866.3,688.5z
				 M888.4,688.5l-14.7,0l0,3.7l14.7,0L888.4,688.5L888.4,688.5z M910.5,688.4l-14.7,0l0,3.7c0,0,3,0,6.2,0l8.5,0L910.5,688.4
				L910.5,688.4z M932.6,688.4l-14.7,0l0,3.7l14.7,0L932.6,688.4L932.6,688.4z M954.7,688.3l-14.7,0l0,3.7l8.5,0c0,0,0,0,0,0l0.1,0
				c0,0,0,0,0,0l0.1,0c0,0,0,0,0,0l0.1,0c0,0,0,0,0,0l0.1,0c3.1,0,5.8,0,5.8,0L954.7,688.3L954.7,688.3z M976.7,688.3l-14.7,0l0,3.7
				l14.7,0L976.7,688.3L976.7,688.3z M998.8,688.3l-14.7,0l0,3.7c0,0,3.9,0,7.7,0h0c0,0,0,0,0.1,0l0,0c0,0,0,0,0,0l0.1,0
				c0,0,0,0,0,0l6.8,0L998.8,688.3L998.8,688.3z M1020.9,688.2l-14.7,0l0,3.7l14.7,0L1020.9,688.2L1020.9,688.2z M1043,688.2
				l-14.7,0l0,3.7l1.2,0c0,0,0,0,0,0l0.3,0c0,0,0,0,0.1,0l0.1,0c0.1,0,0.1,0,0.2,0l0,0c0.1,0,0.1,0,0.2,0l0,0c0.1,0,0.2,0,0.2,0h0
				c4.1,0,12.4,0,12.4,0L1043,688.2L1043,688.2z M1065.1,688.2l-14.7,0l0,3.7l14.7,0L1065.1,688.2L1065.1,688.2z M1087.1,688.1
				l-14.7,0l0,3.7l14.7,0L1087.1,688.1L1087.1,688.1z M1109.2,688.1l-14.7,0l0,3.7l14.7,0L1109.2,688.1L1109.2,688.1z M1131.3,688
				l-14.7,0l0,3.7l14.7,0L1131.3,688L1131.3,688z M1153.4,688l-14.7,0l0,3.7l12.5,0c0,0,0,0,0,0l0.2,0c0,0,0.1,0,0.1,0l0.1,0
				c1,0,1.7,0,1.7,0L1153.4,688L1153.4,688z M1175.5,688l-14.7,0l0,3.7l14.7,0L1175.5,688L1175.5,688z M1197.5,687.9l-14.7,0l0,3.7
				c0,0,3.4,0,6.9,0l0,0c0,0,0,0,0,0l7.8,0L1197.5,687.9L1197.5,687.9z M1219.6,687.9l-14.7,0l0,3.7l14.7,0L1219.6,687.9
				L1219.6,687.9z M1241.7,687.9l-14.7,0l0,3.7l5.1,0c0,0,0,0,0,0l0.2,0c0,0,0,0,0,0l0.2,0c0,0,0,0,0,0l0.1,0c0,0,0,0,0.1,0l0,0
				c0.1,0,0.2,0,0.3,0l0.1,0c4.1,0,8.7,0,8.7,0L1241.7,687.9L1241.7,687.9z M1263.8,687.8l-14.7,0l0,3.7l14.7,0L1263.8,687.8
				L1263.8,687.8z M1268,673.6h-3.7v14.7h3.7V673.6L1268,673.6z M1268,651.5h-3.7v14.7h3.7V651.5L1268,651.5z M1268,629.5h-3.7v14.7
				h3.7V629.5L1268,629.5z M1267.9,619L1267.9,619l0.1,0l0,0C1268,619,1268,619,1267.9,619L1267.9,619z M1256.4,618.9l0,3.7
				c9.3,0,10.9,0.1,11.2,0.1l0,0l0-0.6h0.3V619l0,0h-0.1l0,0l0,0l0,0c-0.3,0-0.9,0-2-0.1c0,0,0,0-0.1,0h0
				C1263.9,618.9,1260.7,618.9,1256.4,618.9L1256.4,618.9z M1234.3,618.8l0,3.7c5.5,0,10.5,0,14.7,0l0-3.7c-3.2,0-6.7,0-10.7,0
				c0,0-0.1,0-0.1,0c0,0,0,0,0,0c0,0,0,0,0,0c0,0,0,0-0.1,0C1236.9,618.8,1235.6,618.8,1234.3,618.8L1234.3,618.8z M1212.2,618.8
				l0,3.7c5.2,0,10.2,0,14.7,0l0-3.7C1222.4,618.8,1217.5,618.8,1212.2,618.8L1212.2,618.8z M1190.1,618.7l0,3.7l14.7,0l0-3.7
				C1200.2,618.7,1195.3,618.7,1190.1,618.7L1190.1,618.7z M1168.1,618.7l0,3.7l14.7,0l0-3.7C1178,618.7,1173.1,618.7,1168.1,618.7
				L1168.1,618.7z M1157.2,618.7v3.7l3.5,0l0-3.7C1159.5,618.7,1158.3,618.7,1157.2,618.7L1157.2,618.7L1157.2,618.7z"/>
		</g>
	</g>
</g>
<g id="Фигура_4_1_" class="st22">
</g>
<g id="Фигура_5_1_" class="st22">
</g>
<g id="Фигура_6_1_" class="st22">
	<text transform="matrix(1 0 0 1 1160.6666 33.3013)" class="st7 st11">TRANSLATION</text>
</g>
<g id="Слой_185">
</g>
<g id="Слой_183">
</g>
<g id="Слой_186" class="st18">
</g>
<g id="Слой_184">
	<text transform="matrix(1 0 0 1 202 125.5186)" class="st25 st26 st27">...................................................................................................................................................................................................     </text>
	<text transform="matrix(1 0 0 1 202 151)" class="st25 st26 st27">...................................................................................................................................................................................................     </text>
	<text transform="matrix(1 0 0 1 202 200.1621)" class="st25 st26 st27">...................................................................................................................................................................................................     </text>
	<text transform="matrix(1 0 0 1 202 226)" class="st25 st26 st27">...................................................................................................................................................................................................     </text>
	<text transform="matrix(1 0 0 1 202 273.2084)" class="st25 st26 st27">...................................................................................................................................................................................................     </text>
	<text transform="matrix(1 0 0 1 202 299.2084)" class="st25 st26 st27">...................................................................................................................................................................................................     </text>
	<text transform="matrix(1 0 0 1 202 346.2499)" class="st25 st26 st27">...................................................................................................................................................................................................     </text>
	<text transform="matrix(1 0 0 1 202 371.9999)" class="st25 st26 st27">...................................................................................................................................................................................................     </text>
	<text transform="matrix(1 0 0 1 202 419.2499)" class="st25 st26 st27">...................................................................................................................................................................................................     </text>
	<text transform="matrix(1 0 0 1 199 444.9999)" class="st25 st26 st27">...................................................................................................................................................................................................     </text>
	<text transform="matrix(1 0 0 1 195 494.9998)" class="st25 st26 st27">...................................................................................................................................................................................................     </text>
	<text transform="matrix(1 0 0 1 195 565.9999)" class="st25 st26 st27">...................................................................................................................................................................................................     </text>
	<rect x="151" y="88.5" class="st28" width="44" height="1.5"/>
	<rect x="151" y="125.5" class="st28" width="44" height="1.5"/>
	<rect x="151" y="162.7" class="st28" width="44" height="1.5"/>
	<rect x="151" y="200.2" class="st28" width="44" height="1.5"/>
	<rect x="151" y="234.8" class="st28" width="44" height="1.5"/>
	<rect x="151" y="273.2" class="st28" width="44" height="1.5"/>
	<rect x="151" y="307.7" class="st28" width="44" height="1.5"/>
	<rect x="151" y="346.3" class="st28" width="44" height="1.5"/>
	<rect x="151" y="380.9" class="st28" width="44" height="1.5"/>
	<rect x="151" y="419.2" class="st28" width="44" height="1.5"/>
	<rect x="151" y="453.8" class="st28" width="44" height="1.5"/>
	<rect x="151" y="492.8" class="st28" width="44" height="1.5"/>
	<rect x="151" y="527.8" class="st28" width="44" height="1.5"/>
	<rect x="151" y="567.2" class="st28" width="44" height="1.5"/>
	<rect x="151" y="601.8" class="st28" width="44" height="1.5"/>
	<rect x="151" y="637.3" class="st28" width="44" height="1.5"/>
	<rect x="183" y="91.2" class="st28" width="12" height="1.2"/>
	<rect x="183" y="94.8" class="st28" width="12" height="1.2"/>
	<rect x="183" y="99" class="st28" width="12" height="1.2"/>
	<rect x="183" y="103.3" class="st28" width="12" height="1.2"/>
	<rect x="183" y="111.5" class="st28" width="12" height="1.2"/>
	<rect x="183" y="115.4" class="st28" width="12" height="1.2"/>
	<rect x="183" y="119" class="st28" width="12" height="1.2"/>
	<rect x="183" y="123" class="st28" width="12" height="1.2"/>
	<rect x="183" y="128.3" class="st28" width="12" height="1.2"/>
	<rect x="183" y="132.3" class="st28" width="12" height="1.2"/>
	<rect x="183" y="136.2" class="st28" width="12" height="1.2"/>
	<rect x="183" y="140.4" class="st28" width="12" height="1.2"/>
	<rect x="183" y="148.4" class="st28" width="12" height="1.2"/>
	<rect x="183" y="152.5" class="st28" width="12" height="1.2"/>
	<rect x="183" y="156.2" class="st28" width="12" height="1.2"/>
	<rect x="183" y="160.4" class="st28" width="12" height="1.2"/>
	<rect x="183" y="165.3" class="st28" width="12" height="1.2"/>
	<rect x="183" y="169.4" class="st28" width="12" height="1.2"/>
	<rect x="183" y="173.3" class="st28" width="12" height="1.2"/>
	<rect x="183" y="177.8" class="st28" width="12" height="1.2"/>
	<rect x="183" y="185.4" class="st28" width="12" height="1.2"/>
	<rect x="183" y="189.2" class="st28" width="12" height="1.2"/>
	<rect x="183" y="192.9" class="st28" width="12" height="1.2"/>
	<rect x="183" y="196.8" class="st28" width="12" height="1.2"/>
	<rect x="183" y="203.4" class="st28" width="12" height="1.2"/>
	<rect x="183" y="207.2" class="st28" width="12" height="1.2"/>
	<rect x="183" y="211.6" class="st28" width="12" height="1.2"/>
	<rect x="183" y="215.3" class="st28" width="12" height="1.2"/>
	<rect x="183" y="223.2" class="st28" width="12" height="1.2"/>
	<rect x="183" y="227.2" class="st28" width="12" height="1.2"/>
	<rect x="183" y="231.6" class="st28" width="12" height="1.2"/>
	<rect x="183" y="238.3" class="st28" width="12" height="1.2"/>
	<rect x="183" y="242.1" class="st28" width="12" height="1.2"/>
	<rect x="183" y="246.3" class="st28" width="12" height="1.2"/>
	<rect x="183" y="250.4" class="st28" width="12" height="1.2"/>
	<rect x="183" y="258.2" class="st28" width="12" height="1.2"/>
	<rect x="183" y="262" class="st28" width="12" height="1.2"/>
	<rect x="183" y="266.2" class="st28" width="12" height="1.2"/>
	<rect x="183" y="270.3" class="st28" width="12" height="1.2"/>
	<rect x="183" y="276.3" class="st28" width="12" height="1.2"/>
	<rect x="183" y="280.1" class="st28" width="12" height="1.2"/>
	<rect x="183" y="284.3" class="st28" width="12" height="1.2"/>
	<rect x="183" y="288.4" class="st28" width="12" height="1.2"/>
	<rect x="183" y="296.3" class="st28" width="12" height="1.2"/>
	<rect x="183" y="300.1" class="st28" width="12" height="1.2"/>
	<rect x="183" y="304.3" class="st28" width="12" height="1.2"/>
	<rect x="183" y="311.3" class="st28" width="12" height="1.2"/>
	<rect x="183" y="315.1" class="st28" width="12" height="1.2"/>
	<rect x="183" y="319.3" class="st28" width="12" height="1.2"/>
	<rect x="183" y="323.4" class="st28" width="12" height="1.2"/>
	<rect x="183" y="331.3" class="st28" width="12" height="1.2"/>
	<rect x="183" y="335.1" class="st28" width="12" height="1.2"/>
	<rect x="183" y="339.3" class="st28" width="12" height="1.2"/>
	<rect x="183" y="343.4" class="st28" width="12" height="1.2"/>
	<rect x="183" y="349.3" class="st28" width="12" height="1.2"/>
	<rect x="183" y="353.1" class="st28" width="12" height="1.2"/>
	<rect x="183" y="357.3" class="st28" width="12" height="1.2"/>
	<rect x="183" y="361.4" class="st28" width="12" height="1.2"/>
	<rect x="183" y="365.3" class="st28" width="12" height="1.2"/>
	<rect x="183" y="369.1" class="st28" width="12" height="1.2"/>
	<rect x="183" y="373.3" class="st28" width="12" height="1.2"/>
	<rect x="183" y="377.4" class="st28" width="12" height="1.2"/>
	<rect x="183" y="384.7" class="st28" width="12" height="1.2"/>
	<rect x="183" y="388.4" class="st28" width="12" height="1.2"/>
	<rect x="183" y="392.7" class="st28" width="12" height="1.2"/>
	<rect x="183" y="396.8" class="st28" width="12" height="1.2"/>
	<rect x="183" y="404.3" class="st28" width="12" height="1.2"/>
	<rect x="183" y="408.1" class="st28" width="12" height="1.2"/>
	<rect x="183" y="412.3" class="st28" width="12" height="1.2"/>
	<rect x="183" y="416.4" class="st28" width="12" height="1.2"/>
	<rect x="183" y="422.3" class="st28" width="12" height="1.2"/>
	<rect x="183" y="426.1" class="st28" width="12" height="1.2"/>
	<rect x="183" y="430.3" class="st28" width="12" height="1.2"/>
	<rect x="183" y="434.4" class="st28" width="12" height="1.2"/>
	<rect x="183" y="438.3" class="st28" width="12" height="1.2"/>
	<rect x="183" y="442.1" class="st28" width="12" height="1.2"/>
	<rect x="183" y="446.3" class="st28" width="12" height="1.2"/>
	<rect x="183" y="450.4" class="st28" width="12" height="1.2"/>
	<rect x="183" y="457.3" class="st28" width="12" height="1.2"/>
	<rect x="183" y="461.1" class="st28" width="12" height="1.2"/>
	<rect x="183" y="465.3" class="st28" width="12" height="1.2"/>
	<rect x="183" y="469.4" class="st28" width="12" height="1.2"/>
	<rect x="183" y="477.3" class="st28" width="12" height="1.2"/>
	<rect x="183" y="481.1" class="st28" width="12" height="1.2"/>
	<rect x="183" y="485.3" class="st28" width="12" height="1.2"/>
	<rect x="183" y="489.4" class="st28" width="12" height="1.2"/>
	<rect x="183" y="496.3" class="st28" width="12" height="1.2"/>
	<rect x="183" y="500.1" class="st28" width="12" height="1.2"/>
	<rect x="183" y="504.3" class="st28" width="12" height="1.2"/>
	<rect x="183" y="508.4" class="st28" width="12" height="1.2"/>
	<rect x="183" y="512.3" class="st28" width="12" height="1.2"/>
	<rect x="183" y="516.1" class="st28" width="12" height="1.2"/>
	<rect x="183" y="520.3" class="st28" width="12" height="1.2"/>
	<rect x="183" y="524.4" class="st28" width="12" height="1.2"/>
	<rect x="183" y="531.3" class="st28" width="12" height="1.2"/>
	<rect x="183" y="535.1" class="st28" width="12" height="1.2"/>
	<rect x="183" y="539.3" class="st28" width="12" height="1.2"/>
	<rect x="183" y="543.4" class="st28" width="12" height="1.2"/>
	<rect x="183" y="551.3" class="st28" width="12" height="1.2"/>
	<rect x="183" y="555.1" class="st28" width="12" height="1.2"/>
	<rect x="183" y="559.3" class="st28" width="12" height="1.2"/>
	<rect x="183" y="563.4" class="st28" width="12" height="1.2"/>
	<rect x="183" y="570.3" class="st28" width="12" height="1.2"/>
	<rect x="183" y="574.1" class="st28" width="12" height="1.2"/>
	<rect x="183" y="578.3" class="st28" width="12" height="1.2"/>
	<rect x="183" y="582.4" class="st28" width="12" height="1.2"/>
	<rect x="183" y="586.3" class="st28" width="12" height="1.2"/>
	<rect x="183" y="590.1" class="st28" width="12" height="1.2"/>
	<rect x="183" y="594.3" class="st28" width="12" height="1.2"/>
	<rect x="183" y="598.4" class="st28" width="12" height="1.2"/>
	<rect x="183" y="605.3" class="st28" width="12" height="1.2"/>
	<rect x="183" y="609.1" class="st28" width="12" height="1.2"/>
	<rect x="183" y="613.3" class="st28" width="12" height="1.2"/>
	<rect x="183" y="625.5" class="st28" width="12" height="1.2"/>
	<rect x="183" y="629.3" class="st28" width="12" height="1.2"/>
	<rect x="183" y="633.5" class="st28" width="12" height="1.2"/>
	<rect x="183" y="617.4" class="st28" width="12" height="1.2"/>
	<rect x="172" y="621.1" class="st28" width="23" height="1.4"/>
	<rect x="172" y="586.2" class="st28" width="23" height="1.4"/>
	<rect x="172" y="547.3" class="st28" width="23" height="1.4"/>
	<rect x="172" y="512.2" class="st28" width="23" height="1.4"/>
	<rect x="172" y="473.3" class="st28" width="23" height="1.4"/>
	<rect x="172" y="438.2" class="st28" width="23" height="1.4"/>
	<rect x="172" y="400.5" class="st28" width="23" height="1.4"/>
	<rect x="172" y="365.2" class="st28" width="23" height="1.4"/>
	<rect x="172" y="327.3" class="st28" width="23" height="1.4"/>
	<rect x="172" y="292.2" class="st28" width="23" height="1.4"/>
	<rect x="172" y="254.2" class="st28" width="23" height="1.4"/>
	<rect x="172" y="219" class="st28" width="23" height="1.4"/>
	<rect x="172" y="181.8" class="st28" width="23" height="1.4"/>
	<rect x="172" y="144.3" class="st28" width="23" height="1.4"/>
	<rect x="172" y="107.4" class="st28" width="23" height="1.4"/>
	<text transform="matrix(1 0 0 1 1184.9694 210)"><tspan x="0" y="0" class="st12 st7 st11">B2</tspan><tspan x="-27.8" y="13.2" class="st12 st7 st11">AND HIGHER</tspan></text>
</g>
<g id="Слой_187">
	<line class="st23" x1="543" y1="620.4" x2="543" y2="691.6"/>
</g>
</svg>
